<?xml version="1.0" encoding="utf-8"?>
<!-- Generator: Adobe Illustrator 21.0.2, SVG Export Plug-In . SVG Version: 6.00 Build 0)  -->
<svg version="1.1" id="Layer_1" xmlns="http://www.w3.org/2000/svg" xmlns:xlink="http://www.w3.org/1999/xlink" x="0px" y="0px"
	 viewBox="0 0 269 760" style="enable-background:new 0 0 269 760;" xml:space="preserve">
<g>
	<path d="M208.8,714.3c0.7,0.6,1.5,1.7,2.2,1.7c7.9,0.3,15.8,0.8,23.6,0.6c6.4-0.2,12.7-0.2,19-0.8c3.8-0.4,5.3-0.7,6,3.7
		c-4.7,0.2-9.3,0.4-14,0.5c-11,0.2-21.9,0.2-32.9,0.4c-4.6,0.1-4.6,0.2-4.1,4.7c0.6,5-2.6,9.7-7.5,10.9c-0.9,0.2-1.6,0.7-2.5,1
		c-4.8,1.9-9.6,4.1-14.6,5.6c-4.8,1.5-10,1.8-14.8,3.4c-6.6,2.1-12.9,0.9-19.2-0.4c-5.5-1.1-10.8-2.8-16.2-4.4
		c-6.4-1.9-10.7-6.3-13.1-12.4c-0.7-1.8-1.6-2.3-3.4-2.2c-9.9,0.3-19.9,0.6-29.8,0.7c-2.9,0-5.8-0.6-8.6-1.4
		c-6.7-1.8-13.4-1.3-20.2-1c-2.1,0.1-4.8,1.3-6.5-2.4c8.4-0.2,16.4-1,24.3-0.3c10.2,0.8,20.3,1.1,30.5-0.3c4.3-0.6,8.7-0.1,13.6-0.1
		c0-5.9-0.1-10.8,0-15.7c0.1-9.5,0.5-19,0.5-28.5c0-6.7-0.3-13.5-0.7-20.2c-0.4-7.1-1.6-14.2-1.3-21.3c0.1-2.8,3.1-5.9,5.5-8.1
		c5.1-4.6,12.1-4.9,18.4-6.7c2.3-0.7,3.5-1.6,3.4-3.7c-0.2-3.5-0.3-7.2-1.3-10.5c-2.7-8.7-5.8-17.3-8.7-26c-0.9-2.5-1.9-5-2.8-7.5
		c-2.6-7.4-2-14.8,0.8-22c2.7-7,5.9-13.7,10.9-19.4c1.9-2.2,4-4.3,6.3-6c1-0.7,2.9-0.3,4.4-0.4c0.2,0.3,0.4,0.7,0.5,1
		c-0.6,1.1-0.9,2.9-1.8,3.3c-5.8,2.8-8.9,8.1-11.9,13.1c-3.8,6.4-6.8,13.3-6.6,21.2c0.2,6.3,2.5,11.9,4.5,17.7
		c3,8.6,6.7,17.1,9.6,25.8c1,3,0.5,6.5,0.8,9.8c0.1,0.9,0.1,1.7,0.2,2.8c3.8-0.2,7.3-0.2,10.8-0.7c1-0.2,2.2-1.9,2.4-3.1
		c1.1-7-1.4-13.5-4.6-19.4c-5.2-9.6-6.2-20.1-5.7-30.4c0.4-7.2,4-14.2,8.8-20.3c4.5-5.7,8.7-11.8,12.3-18.2
		c4.1-7.3,3.5-15.5,2.2-23.5c-0.2-1.4-1.1-2.9-0.8-4.1c0.3-1.2,1.8-2,2.8-3c0.7,0.9,1.9,1.8,1.9,2.7c0.3,6.8,1.7,13.6,0.2,20.6
		c-1.5,7-4,13.2-8.6,18.8c-4.2,5.2-8.2,10.8-11.2,16.8c-4.2,8.4-4.4,17.6-2,26.5c1.4,5.4,3.5,10.6,5.8,15.7
		c2.8,6.4,4.7,12.9,3.9,20.1c3.9,0,7.5,0,11.3,0c3.5-6,1.2-11.5-1.8-16.3c-5.4-8.8-8.4-18.2-6.1-28.3c1.5-7,4.5-13.9,10.5-18.6
		c7.3-5.7,9.8-13,8.2-22c-0.3-1.6-0.5-3.4-0.1-4.9c0.2-0.9,1.7-1.6,2.6-2.4c0.7,0.9,2.1,1.8,2.1,2.7c0,5.6,0.1,11.2-0.7,16.7
		c-0.8,5.6-5.5,8.9-9.2,12.8c-6.8,7.3-11.8,15.2-9.2,26c1.5,6.3,3.3,12.1,7.4,17.4c2.5,3.2,4.2,7.3,2.4,11.9
		c-0.6,1.6-0.7,3.5-1.1,5.6c4.6,1.3,9.2,2.6,13.8,3.9c0.9,0.2,1.7,0.4,2.6,0.7c6.7,1.8,8.7,5.5,6.7,12.2c-0.4,1.4-0.3,3-0.2,4.5
		c4.2-4.7,9.8-2.7,14.6-3.7c2-0.4,4.3,0.1,6.3,0.8c2,0.7,4.4,1.6,5.4,3.2c2.4,3.8,5,7.9,5.8,12.2c2,11,3.2,22.3,0.8,33.4
		c-0.8,4-2.6,8-4.9,11.4c-6.6,9.3-15.9,14.4-27.7,14.7C209.2,713.3,209,713.8,208.8,714.3z M189.9,681.5c0-0.2,0-0.4,0-0.5
		C189.8,681.1,189.9,681.2,189.9,681.5c-0.1,1.6,0.4,4.1-2.2,4c-2.4-0.1-2.7-2.4-2.6-4.4c0-1.1,0.4-2.2,0.6-3.4
		c0.1-0.9,0.1-1.8,0.1-2.7c-0.4-0.1-0.9-0.2-1.3-0.4c-0.9,2.4-2,4.7-2.8,7.1c-0.6,1.7-0.9,4-3.3,3.2c-2.3-0.7-2-3-1.4-4.9
		c0.5-1.5,1.3-2.9,2.1-4.6c-1.9,0-3.3,0-4.5,0c-1.8,7.5-1.8,7.5-8.7,8.5c-5,0.7-8-2.8-7.9-8c0-0.3,0.7-1.5,1-2c1.1,0.3,2.8,5.7,4,6
		c1.6-3.1,4.2-4,7-2c0.2-1.7-0.2-4.7,0.3-5.7c0.5-1,1.8-2.1,2.9-2.3c3-0.4,1.8,5,8.9-0.7c3.2-1.4,5-0.4,7,1.3
		c0.4-0.1,0.7-0.2,0.9-0.3c2-1.5,4-3.7,6.6-1.4c1.9,1.7,1.2,4.3-1.8,7.2c-0.1,0.1-0.2,0.2-0.3,0.2c-2,1.6-1.1,2.7,1.1,4
		c0.7-1.6,1.2-2.9,1.7-4.3c0.4-1,0.8-2,1.4-2.9c1.7-2.8,3.6-5.5,5.3-8.3c0.3-0.5,0.2-1.2,0.2-1.9c0-7.3,0-14.7,0-22.6
		c-3.8,1-6.9,2.2-10,2.7c-8.7,1.3-17.4,2.5-26.1,3.6c-5,0.6-10.1,1.3-15.1,1.5c-4.4,0.2-9-1-13.3-0.4c-4.9,0.7-8.7-0.9-12.6-3.2
		c-0.7-0.4-1.5-0.8-2.6-1.5c-0.1,1.4-0.3,2.3-0.3,3.3c0.4,14.4,0.9,28.8,1.3,43.2c0.4,12.7,0.8,25.4,1.2,38c0,0.7,0.4,1.6,0.9,2
		c2.1,1.8,4.1,3.7,6.5,5.2c7.8,5.1,16.9,5.3,25.6,6.4c8.5,1,16.5-2.2,24.7-3.7c2.4-0.4,5.1-1,7.1-2.3c3.6-2.3,8.3-2.7,10.5-7.5
		c2.7-5.7,0.9-11,0.2-16.6c-0.7,0.9-1,1.8-1.2,2.8c-0.8,3.1-2.7,3.9-5.7,2.9c-3.4-1.2-3.6-4.2-4.6-7c-0.3-0.9-1.4-1.4-2.1-2.2
		c-0.6,0.7-1.4,1.3-1.9,2c-0.9,1.4-1.6,2.8-2.4,4.2c-0.5-0.1-1.1-0.2-1.6-0.3c-0.2-1.4-0.8-3-0.4-4.3c1.4-4.5,3-8.9,4.6-13.3
		c1.5-4.2,2.1-4.5,6.3-2.4c3.1-2.6,4.3-2.4,5.7,1.4c0.8,2.1,1.1,4.7,4.7,6c0-4.1-0.2-7.5,0-10.8c0.4-5.1-0.1-6-5-7.7
		c-4.7,3.4-4.7,3.4-8.4-0.4C190.2,681.8,190,681.7,189.9,681.5z M160.8,625.3c-0.3-0.4-0.5-0.9-0.8-1.3c-2.2,0.3-4.4,0.7-6.7,0.8
		c-2.6,0.2-4.2,1.3-5.1,3.8c-1.1,2.8-2.5,5.5-4,8.2c-0.4,0.7-1.6,1.6-1.9,1.4c-0.8-0.4-1.7-1.4-1.7-2.1c0-1.3,0.4-2.7,1-3.8
		c1.1-2.1,2.6-3.9,3.9-5.9c-0.2-0.3-0.3-0.6-0.5-1c-4,1-8.1,1.6-11.8,3.2c-2.2,0.9-4.9,2.9-5.6,5c-0.9,2.7,1.4,5.1,3.8,6.9
		c3.7,2.8,8,2.5,12.3,2.7c10.6,0.6,21.1,0.8,31.5-1c3.4-0.6,6.9-0.6,10.1-1.4c5.3-1.4,10.4-3.1,15.5-5c1.3-0.5,2.8-2.4,2.7-3.6
		c0-1.2-1.8-2.8-3.1-3.3c-4.4-1.5-9.1-2.4-13.6-3.7c-2.6-0.8-4.2-0.1-5.8,2.1c-1.7,2.3-4.2,4-6.3,6c-0.4-0.3-0.7-0.6-1.1-0.9
		c1.4-2.8,2.8-5.6,4.4-8.8c-6.6-0.9-12-0.9-15.4,5.2c-0.7,1.3-1.9,2.5-3.2,3.2c-1,0.6-2.4,0.3-3.6,0.4c0.4-1.3,0.5-2.8,1.2-3.9
		C158.2,627.3,159.6,626.4,160.8,625.3z M208.2,694.1c9.3,1.1,13.5-2,15-10c0.8-4.2,2-8.4,2.6-12.6c0.5-3.6,0.9-7.4,0.6-11
		c-0.4-5.1-4.1-8-8.7-7.6c-7.2,0.7-9.4,3.2-9.2,9.3c0.2,6.1-0.2,12.2-0.3,18.3C208.1,684.9,208.2,689.5,208.2,694.1z M208.9,705.5
		c13.4,4.5,23.4-6.2,26.7-15.4c1.7-4.8,2.5-10.3,2.2-15.4c-0.4-7.3,1-14.7-1.5-21.8c-1.2-3.4-2.2-6.9-5.7-8.7
		c-6.5-3.3-15.8-2-21.1,2.9c-0.8,0.7-1.2,1.9-2.1,3.6c1.3-0.4,1.7-0.4,2-0.6c4.4-3.6,9.5-4.9,14.6-2.7c5.4,2.5,7.8,7.4,7.5,13.5
		c-0.2,5.2-0.2,10.5-0.8,15.6c-1.2,10.6-3.9,20.4-16.2,23.6c-1.8,0.5-3.7,0.8-5.7,1.2C208.9,702.6,208.9,704,208.9,705.5z
		 M198,703.1c-4.6,2.2-4.8,3.2-1.3,7.4C197.1,707.9,197.5,705.8,198,703.1z"/>
	<path d="M124.9,57.1c-4.1-1.1-8.1-2.2-12.2-3.3c-8.4-2.2-16.5-1.9-24.2,2.8c-0.9,0.6-3.2,0.7-3.6,0.1c-1.3-1.9,0.5-2.8,1.9-3.2
		c4-1,8.2-3.8,12.2-4.6c8-1.7,15.5,2.5,22.9,5.1c1.2,0.4,2.2,1.5,3.3,2.2C125.1,56.5,125,56.8,124.9,57.1z"/>
	<path d="M231.3,633c-1.3-2.2-0.6-3.8,1.3-5.5c1.8-1.6,3.1-3.9,4.4-6.1c1-1.7,2-3.4,4-2.1c2.2,1.4,0.3,3-0.5,4.5
		C238.9,626.8,232.9,635.5,231.3,633z"/>
	<path d="M211.6,26.1c0.2-0.6,0.1-1.2,0.3-1.3c4.1-1.8,8.5-3.2,11.4-7.1c0.2-0.3,2.2,0.1,2.2,0.3c0.2,1.1,0.4,3.2-0.1,3.4
		c-4.2,1.9-8.6,3.4-12.9,5C212.3,26.6,211.9,26.3,211.6,26.1z"/>
	<path d="M208.5,20.9c3.4-4.6,6.3-9.2,10.4-13c0.6-0.5,1.5-0.6,2.2-0.2c0.1,0.1,0.3,0.2,0.4,0.2c0.6,0.4,0.7,1.2,0.3,1.7
		c-3.3,3.9-6.3,6.6-9.7,10.3c-0.5,0.6-2,1.8-2.9,2C208.9,21.6,208.7,21.3,208.5,20.9z"/>
	<path d="M202.2,19.4c2.4-4.7,4.7-9.4,7.3-13.9c0.4-0.8,1.5-4.4,4.2-1.5c-3.7,6-6.9,11.1-10.1,16.2
		C203.1,19.9,202.6,19.6,202.2,19.4z"/>
	<path d="M239.1,637.9c-1.2,0.1-2.4-0.6-3.7-0.9c0.6-1,0.9-2.2,1.8-2.8c1.7-1.1,3.6-1.8,5.3-2.6c1.6-0.3,3.4,1.4,1.9,3.7
		C244.5,635.3,240.9,637.7,239.1,637.9z"/>
	<path d="M191.3,265.3c0.8,1.2,1.5,2.1,2,3.2c0.9,1.8,1.5,3.6,2.4,5.4c0.9,1.7,0.7,2.9-1.3,3.4C190.1,273.3,189,269.5,191.3,265.3z"
		/>
	<path d="M188.4,209.2c2.5,1.5,4.8,6.5,4,9c-0.2,0.5-0.8,1.3-1.1,1.2c-0.8-0.1-2-0.5-2.1-1c-0.8-2.9-1.3-5.9-1.8-8.9
		C187.7,209.4,188.1,209.3,188.4,209.2z"/>
	<path d="M179.1,180.3c1.1-3.9,2-7.7,3.2-11.6c0.2-0.5,1.3-0.7,2.8-1.4c-0.5,5.4-1.9,9.6-4.2,13.5
		C180.3,180.6,179.7,180.4,179.1,180.3z"/>
	<path d="M195.5,196.6c1.4-1.2,2.3-1.9,3.2-2.7c3.2,2.5,4.3,5.7,3.1,9.4C199.6,201,197.6,198.9,195.5,196.6z"/>
	<path d="M226,629.5c1.1-3.1,2.2-6.3,3.4-9.5c1.9,1,3.6,2.5,2.8,3.5c-1.1,1.4-2.1,3.4-5.1,6.4C226.7,629.8,226.3,629.6,226,629.5z"
		/>
	<path d="M195.7,130.8c-1.2-4.3-2.5-7.7-1-11.4C197.9,121,198.4,125.3,195.7,130.8z"/>
	<path d="M186.5,141.6c-2.6-1.7-3.5-5.7-2.4-10.1C187,132.5,187.9,136.3,186.5,141.6z"/>
	<path d="M183.1,107.5c-0.3-3.3-0.6-6-0.7-8.7c0-0.6,0.6-1.4,1.2-1.7c0.3-0.2,1.5,0.4,1.5,0.6c0.2,3,0.2,5.9,0.2,8.9
		C185.2,106.8,184.4,107,183.1,107.5z"/>
	<path d="M183.2,275.8c-1,3.3-1.9,6.6-3,10.5c-2.8-3.2-1.7-7.3,2-10.8C182.5,275.6,182.9,275.7,183.2,275.8z"/>
	<path d="M196.1,91.3c0.9,2.8,1.8,5.7,2.8,9.1c-4.3-1.9-5.9-6-4.1-8.9C195.3,91.5,195.7,91.4,196.1,91.3z"/>
	<path d="M189.2,236.1c3,3.4,2.9,6.9,0.2,10.7C186.6,243.3,189.1,240.1,189.2,236.1z"/>
	<path d="M191.5,147.1c3.5,1,3.5,3.9-0.8,8.4C190.9,152.8,191.2,150,191.5,147.1z"/>
	<path d="M200.2,69.3c-0.2,0-0.4,0-0.7,0C199.8,69.3,200,69.3,200.2,69.3C200.2,69.3,200.2,69.3,200.2,69.3z"/>
	<path d="M170.2,95.3c0-0.2,0-0.4,0-0.4C170.2,94.9,170.2,95,170.2,95.3L170.2,95.3z"/>
	<path d="M145.6,419c-2.8,3.7-5.2,6.7-7.6,9.9c-2.3-1.6-1.8-3.7-0.3-5.3C139.6,421.6,140.5,417.4,145.6,419z"/>
	<path d="M171.9,443.2c1.3,4.5,2.3,8.2,3.4,12.1c-2.7,0.9-4-0.8-4.4-3C170.4,449.5,167.6,446.4,171.9,443.2z"/>
	<path d="M139.2,415.8c-2.2,2.7-4.3,5.4-6.5,8.3c-1.9-2.3-1.4-4.1,0.2-5.3C134.8,417.3,136.7,414.7,139.2,415.8z"/>
	<path d="M196.7,470.2c-2.4-2.5-4.7-5-7.3-7.6c2.6-1.6,4.3-0.8,5.2,1C195.9,465.7,198.2,467.9,196.7,470.2z"/>
	<path d="M193,502c-2.4-2.5-3-2.8-5.5-5.4c2.6-1.6,4.3-0.8,5.2,1C193.9,499.7,194.4,499.7,193,502z"/>
	<path d="M148.3,396.6c-1.7,0.7-3.4,1.6-5.3,1.9c-1.1,0.2-2.3-0.5-3.5-0.8c0.7-1.1,1.2-2.4,2.2-3.3c0.7-0.6,1.9-0.4,2.9-0.8
		C147.6,392.5,148.6,393.8,148.3,396.6L148.3,396.6z"/>
	<path d="M205.8,424.4c1.1-0.3,1.9-0.6,2.9-0.9c0.2,0.6,0.5,1.1,0.3,1.2c-1.1,1.3-2,3-3.4,3.5c-0.7,0.3-2.6-1.5-3.3-2.7
		c-2.3-4-3.4-5.6,0.6-7.2C203.8,420.2,204.7,422.1,205.8,424.4z"/>
	<path d="M213.8,407.3c-1.2,0.7-2.2,1.3-3.2,1.9c-1.1,0.7-2.3,1.5-3.5,2c-1,0.4-2.1,0.5-3.1,0.8c-0.1-1.3-0.7-2.8-0.2-3.8
		C205.4,405.3,210.4,404.8,213.8,407.3z"/>
	<path d="M161,471c-1.2,0.7,0.8,1.6-0.3,2.2c-1.2,0.7-2.3,1.5-3.5,2c-1,0.4-2.1,0.5-3.2,0.8c-0.1-1.3-0.7-2.8-0.2-3.8
		C155.4,469.3,157.5,468.5,161,471z"/>
	<path d="M210.2,420.9c-2.7-0.8-4.6-1.9-4-4.7c0.1-0.5,1.6-1.3,2.3-1.1C211.6,415.9,210.9,418.2,210.2,420.9z"/>
	<path d="M215.4,395.8c-1.4,1-2.3,2.2-2.8,2.1c-1.2-0.4-2.1-1.5-3.2-2.3c0.7-0.7,1.5-2.1,2.1-2C212.7,393.7,213.7,394.7,215.4,395.8
		z"/>
	<path d="M181.9,477.1c0.3,1.7,0.8,3.1,0.5,3.4c-0.9,0.8-2.3,1.2-3.5,1.7c-0.3-1-1.1-2.4-0.8-2.8
		C178.8,478.5,180.2,478.1,181.9,477.1z"/>
	<path d="M170.9,468.1c1.6,0.6,3.1,0.8,3.2,1.3c0.2,1.2-0.2,1.6-0.3,2.9c-1-0.2-2.6,0.8-2.8,0.3
		C170.6,471.5,170.9,470.1,170.9,468.1z"/>
	<path d="M161.5,459.8c-1.7-0.2-3.2,0-3.4-0.4c-0.5-1.1-0.5-2.5-0.7-3.8c1,0,2.6-0.5,2.9-0.1C160.9,456.4,161,457.9,161.5,459.8z"/>
	<path d="M184.8,316.4c3.4,0,6.1,0,8.9,0c0.2,0.4,0.3,0.9,0.5,1.3c-2.3,1.6-4.5,3.3-7,4.6c-0.4,0.2-2.2-1.4-2.6-2.5
		C184.1,318.8,184.7,317.4,184.8,316.4z"/>
	<path d="M157.8,497c1.3-3.1,2.3-5.7,3.3-8.2c0.5,0,0.9,0,1.4,0.1c0.6,2.7,1.4,5.4,1.6,8.2c0,0.4-2.1,1.5-3.3,1.5
		C159.8,498.5,158.7,497.5,157.8,497z"/>
	<path d="M151.2,695.1c3.4,1.6,6.5,2.6,9.1,4.4c3.2,2.1,3.7,7,1.7,10.7c-1.7,3.1-7.7,5.6-10.6,4.4c-3.2-1.3-5.8-8.2-4.4-12
		c0.7-1.9,1.5-3.7,2.4-6.1c-3.2,1-6,1.6-8.6,2.8c-0.9,0.4-1.9,2.2-1.8,3.3c0.1,2.8,0.8,5.5,1.1,8.3c0.1,1.4,0.2,3.1-0.4,4.4
		c-0.4,0.8-2,1.5-3,1.5c-0.8,0-2-1.3-2.1-2.1c-0.3-1.7-0.2-3.5-0.1-5.3c0-2.3,0.3-4.6,0.2-6.8c-0.1-2.5-1.3-4.1-4-4.2
		c-2.1-0.1-3.8-1-3.1-3.2c0.2-0.8,2.7-1.4,4.1-1.2c4.4,0.6,8.6,0.9,12.9-1.3C149,690.3,150.5,691.3,151.2,695.1z M150.4,704.7
		c0.7,3.2,2.6,5.8,4.3,5.1c1.7-0.8,2.9-2.7,4.3-4.2c-1.7-1.5-3.2-3.3-5.1-4.2C153.4,701.2,151.6,703.5,150.4,704.7z"/>
	<path d="M170.2,717.4c-2.3-2.3-3.7-4.6-3.6-8.1c0.2-4.1-0.4-8.3-1.2-12.4c-0.7-4.2,0.8-5.9,4.9-4.9c3.4,0.9,6.4,2.3,7.3,6.3
		c0.3,1.2,1.3,2.1,2,3.2c3.1,4.8,1.8,10.2-3.2,12.9C174.4,715.5,172.3,716.3,170.2,717.4z M172.7,711.2c1.3-1.3,2.8-2.2,3-3.3
		c0.8-3.7-1.4-6.2-4-9.2C170.2,703.1,170,706.8,172.7,711.2z"/>
	<path d="M137.1,673c-0.5-1.3-0.6-2.8-1.4-3.5c-2.2-2-0.9-3,0.7-4c3.1-2,9.7-1.2,11.7,1.5c1.9,2.6,0.8,8.1-2.3,10.7
		c-0.8,0.7-1.6,1.5-2.5,1.7c-2.5,0.7-2.5,2.3-2.4,4.4c0.1,1.6-0.2,3.3-0.8,4.7c-0.3,0.6-1.8,1.3-2.5,1.1c-0.6-0.2-1.3-1.5-1.3-2.3
		c-0.1-1.2,0.5-2.5,0.4-3.8c0-1.2-0.1-2.7-0.7-3.6C133,675.9,133,676,137.1,673z M141.8,668.7c-0.4,0.2-0.8,0.3-1.3,0.5
		c-0.2,1.6-0.4,3.2-0.6,4.7c0.4,0.2,0.9,0.3,1.3,0.5c0.7-1.1,1.8-2.2,2.1-3.4C143.5,670.5,142.3,669.5,141.8,668.7z"/>
	<path d="M152,677c-3,3-2.2,4.1-2.6,5.5c0.3,0.2,0.7,0.3,1,0.5c0.6-1.2,1.1-2.4,1.9-3.5c0.5-0.8,1.2-1.8,1.9-1.8
		c0.8,0,1.8,0.7,2.3,1.4c0.9,1.2,1.7,2.6,2.2,4c0.4,0.9,0.7,2.6,0.2,3c-0.8,0.7-2.2,0.8-3.3,0.9c-1.2,0.1-2.4-0.2-3.5-0.3
		c-1.5-0.1-3.8,0.3-4.4-0.5c-0.9-1.2-1-3.4-0.6-4.9c0.3-1.4,3-4.2,3.9-5.4C151.3,676.2,151.7,676.8,152,677z"/>
	<g>
		<path d="M230.9,393.2c-0.6-10-2-19.5-10.5-26.4c-3.9-3.2-5.2-7.5-5.1-12.9c0.1-5.3-1-10.9-2.7-15.9c-1-2.9-2.7-5.3-1.5-8.4
			c4.2-2,5-4.2,3.9-8.5c-0.6-2.4-0.6-5.1-0.1-7.5c1.1-5,0.9-5.7-4.7-6.5c-2.8-9.4-1.9-19.3-2.2-29.3c2,1.3,3.4,2.3,4.7,3.2
			c0.2-0.3,0.5-0.5,0.7-0.8c-1.1-1.5-2.3-2.9-3.1-4.6c-0.8-1.5-1.7-3.4-1.6-4.9c1-10.5,2.2-20.9,3.6-31.3c0.3-2,1.5-4,2.5-6.6
			c-0.2-0.6-1-2.2-0.9-3.7c0.7-5.8,0.9-11.9,3-17.3c1.3-3.3,2-6,1.5-9.4c-0.4-2.2,0.3-4.5,0.3-6.8c0-4.3-0.3-8.6-0.3-13
			c-0.1-8.5,0.1-17-0.4-25.4c-0.3-4.9-1.9-9.6-2.7-14.5c-0.9-5.4-1.7-10.8-2.5-16.2c-0.1-0.9,0-1.9,0-3.2c2.1,0.6,3.7,1,5.3,1.5
			c0.2-0.4,0.4-0.7,0.5-1.1c-1.2-0.9-2.5-1.8-3.6-2.8c-1.2-1.1-2.8-2.2-3.1-3.5c-2.1-9.4-4.7-18.8-5.6-28.4
			c-1.8-18.6-1.3-37.2,1.7-55.7c0.5-3-1.9-6.8-4.6-7.3c-5.5-0.9-10.1-2.3-15.6-3.6c-5.8-1.4-12.5-0.6-18.3-0.1
			c-6.6,0.5-13.1,1.2-19.7,1.7c-6,0.5-11.9,0.1-17.9,0.6c-6.3,0.5-23.3,2-25.4,2.3c-3.9,0.6-7.7,1-11.5,1.3
			c-9.6,0.9-19.3,2.4-28.9,3.1c-5.5,0.4-52.7,2.3-65,2.9v3.5c10.9,0,49.1-1,53.6-1.3c17.5-1.4,35-3.3,52.4-5.1
			c6.5-0.7,13.3,0.7,19.5-2.4c0.5-0.3,1.3-0.1,1.9-0.1c7.9-0.3,15.9,0.2,23.7-1.1c13.6-2.3,27.1-2.3,40.6-0.4
			c4,0.6,7.9,2.2,11.6,3.2c0,1.5,0,2,0,2.5c-1,11.5-2,23.1-3.1,34.6c-0.1,0.6-0.7,1.1-1.1,1.7c0,0,0.1,0,0.1,0
			c0.5,3.5,1.2,6.9,1.5,10.4c0.4,4.7,0.3,9.4,0.9,14.1c0.7,5.7,1.8,11.3,2.7,16.8c-1.4,0.5-2.5,0.9-4.4,1.6c0.9,1.4,1.6,2.5,2.3,3.6
			c1.4,2.1,3.6,3.9,4.2,6.2c1.4,5.7,2.1,11.5,3,17.3c0.2,1.1,0.1,2.3,0.2,3.4c-1-0.6-1.2-1.4-1.7-1.8c-0.9-0.8-2-1.3-3-1.9
			c-0.1,1.5-0.5,3.1,0,4.3c0.5,1.2,1.8,2.2,3,2.8c2.5,1.3,3.1,3.4,3.4,5.9c0.5,4.2,1.3,8.3,1.8,12.4c0.3,2.3,0,4.7,0,7.8
			c-3.1-2.3-5.7-4.3-8.6-6.4c-0.1,3.5,0.1,4.3,2.8,6.1c3.9,2.6,6.5,5.5,6,10.8c-0.5,5.8-0.1,11.6-0.1,17.3c-1.6-0.4-2.9-0.7-4.2-1
			c-0.2,0.3-0.3,0.6-0.5,1c0.5,0.8,0.9,1.9,1.6,2.4c2.5,1.8,2.5,4,1.7,6.7c-0.9,3.6-1.2,7.3-1.8,10.9c-0.2,1.3-0.4,2.5-0.7,3.7
			c-1-0.7-0.9-1.7-1.4-2c-1-0.7-2.3-1-3.4-1.5c-0.4,1.1-0.9,2.2-1,3.3c-0.1,0.6,0.5,1.4,1,2c3.6,4,4.2,8.5,2.4,13.5
			c-0.5,1.4-0.4,3-0.7,4.5c-0.2,1.1-0.6,2.2-0.8,2.9c-1.7-1.3-3-2.3-4.4-3.4c-0.5,0.4-0.9,0.8-1.4,1.1c0.8,1.8,1.3,4,2.5,5.4
			c4.2,4.8,2.5,9.8,1.4,15.2c-1.7-1-3-1.8-4.3-2.7c-0.3,0.3-0.5,0.6-0.8,0.9c0.8,1.2,1.7,2.4,2.3,3.7c0.9,2,2.1,4.2,2.2,6.3
			c0.2,4.3-0.4,8.6-0.3,13c0.1,7.4-1.3,15,2.3,22.2c-0.9,0.7-1.8,1.4-3,2.3c-1.1-1.7-1.8-3.4-3-4.6c-2.1-2.1-2.4-3.6-5-4.8
			c-6.2-3-14-2-17.6,2.7c-2.4,2-3.1,5.9-5.1,8.4c-0.3-0.1-0.6-0.1-0.9-0.2c0.1-2.2,0.2-4.4,0.4-6.5c0.1-1.4,0.7-2.7,0.8-4.1
			c0.5-9.3,0.8-18.6,1.4-27.9c0.7-9.7,0.4-19.7,6.5-28.2c0.4-0.6,0.1-1.8,0.1-2.7c-0.4-0.1-0.7-0.3-1.1-0.4
			c-1.2,1.7-2.5,3.4-4.2,5.7c0-5.5,0.2-10-0.1-14.5c-0.3-4.8-1.4-9.8,4.2-12.7c0.4-0.2,0.1-2,0.1-3c-1,0.1-2.1-0.2-3,0.2
			c-0.8,0.4-1.3,1.4-2.2,2.3c-0.2-0.7-0.4-1-0.4-1.4c-0.2-12.9-0.4-25.7-0.6-38.6c-0.2-14.3-0.8-28.6-0.6-42.9
			c0.1-5.4-2.1-11.2,1.9-16.3c0.3-0.4-1.1-2.1-1.8-3.1c-0.6-0.8-1.8-1.5-2-2.4c-0.7-2.7-1.4-5.5-1.4-8.3c0-4,0.6-8,0.9-12l0,0
			c-0.7-0.6-1.8-1.1-2-1.7c-1.1-6.5-2.5-13.1-2.9-19.7c-0.4-6.1,1.6-11.7,8.1-14.2c1.3-0.5,2.5-1.2,3.8-1.9
			c-1.3-2.3-2.6-2.5-4.5-1.2c-2.4,1.7-5.1,3.1-7.6,4.7c-0.3-0.2-0.7-0.5-1-0.8c0.8-3.3,1.7-6.7,2.6-10.1c-2.9-1.3-3.5,0.8-4,2.8
			c-1,3.8-1.9,7.6-2.6,10.5c-4,0.8-7.2,1.6-10.4,2.1c-5.7,1-11.5,1.9-17.2,2.8c-1,0.2-2,0.3-3,0.5c-2.2,0.4-4.4,0.7-6.5,1.3
			c-1.3,0.4-3.5,1.8-3.4,2.2c1.3,4.6-2.4,6.8-4.5,9.5c-3.7,5-8.7,8.3-15.3,7.6c-7.3-0.7-13.7-7.5-15.9-14.2c-1.3-3.9-2.2-4.7-6.2-4
			c-1.9,0.3-3.8,0.6-5.6,0.5c-3.7-0.3-7.3-0.8-10.9-1.4c-4.2-0.7-48.6,0-60.2-0.4v3.4c13.2,1.1,61.6,1,68.9,1.4
			c6.6,0.3,10.8,3.1,14,8.3c0.2,0.3,0.4,0.7,0.7,0.9c6.8,7.6,15.4,11.3,23.8,7.6c4.9-2.2,9.6-5.4,12.8-10.3
			c3.7-5.8,8.8-9.8,16.3-10.1c5.5-0.2,11-1.4,16.6-2.1c2.3-0.3,4.7-0.5,7.3-0.8c0.7,5.4,1.7,10.3,1.9,15.3
			c0.3,6.1,3.6,12.1,0.9,18.3c2.9,4.7,1.4,10.2,2.5,15.2c1,4.5,2.2,9-0.2,13.3c1,1.5,1.8,3.1,1.9,4.7c0.4,8.4,0.5,16.8,1,25.2
			c0.3,4.8-0.3,9.1-4.4,12.3c-1.2,0.9-1.7,2.6-2.6,3.9c0.5,0.4,0.9,0.8,1.4,1.2c1.9-1.7,3.7-3.5,6.3-5.8c0,4.3-0.4,8,0.1,11.5
			c1.1,7.2,1,14-4.1,19.8c-0.7,0.8-0.7,2.2-1,3.4c0.3,0.1,0.6,0.2,0.9,0.3c1.2-1.1,2.5-2.3,4.2-3.8c0,8.2,0,15.8,0,23.4
			c0,1.2-0.2,2.5,0,3.7c0.3,1.8,1.3,3.5,1.3,5.2c0,8.9-0.2,17.9-0.2,26.8c0,5-0.7,9.5-4.8,13.1c-0.9,0.8-0.8,2.7-1.2,4.2
			c1.2-0.7,2.3-1.4,3.5-2c0.2-0.1,0.5,0,0.9-0.1c0.1,0.7,0.3,1.4,0.2,2.1c-0.4,3.4-1,6.8-1.3,10.2c-0.5,6.3-0.8,12.7-1.2,19
			c-0.1,1.9-0.4,3.5-2.4,4.7c-0.9,0.5-0.9,2.8-1.2,4.2c-0.8,4-0.3,9.3-2.7,11.7c-7.2,7-10.1,15.7-12.3,25c-1.7,7-1,15.2-9,19.2
			c-0.7,0.4-1.1,1.4-1.6,2.1c-1,1.5-1.8,3-2.8,4.5c-3,4.5-6.8,8.7-9,13.6c-5.6,12.8-7.3,26.4-5.4,40.4c0.5,3.4,1.6,6.6,4.6,9
			c4.5,3.6,8.8,7.6,13.4,11.1c2,1.5,4.6,2,7,2.9c0.4-1.2,0.6-1.4,0.5-1.6c-0.1-0.6-0.3-1.2-0.6-1.8c-2-4.6-2-4.5,2.2-7
			c2.4-1.4,2.8-3.5,1-5.7c-0.5-0.7-1.1-1.3-1.7-2.1c1.9-2.6,4.2-2.2,6.6-1.7c1.2,0.2,3.2,0,3.6-0.6c0.6-1.1,0.3-2.8,0.1-4.2
			c-0.1-0.8-0.8-1.5-1.3-2.2c1.6-2.8,3.9-2.3,6.1-1.7c2.5,0.7,5.3,1.6,6.6-1.5c1.4-3.3-1.8-4-3.6-5.3c-9.2-6.6-8.8-18-3.1-23.7
			c2.6-2.6,3.4-2.4,4.8,0.9c1.8,4.4,2.7,4.8,7.2,3.3c0.8-0.3,1.6-0.6,2.2-0.8c0.4,0.2,0.5,0.3,0.6,0.4c4.5,8.3,9.5,9.1,15.9,2.5
			c0.7-0.8,2.1-0.9,3.2-1.4c0.2,0.3,0.5,0.6,0.7,1c-1.4,6.6-1.9,13.5-8.2,18.1c-1,0.7-1.6,2.5-1.7,3.9c-0.1,1.1,0.4,3,1.2,3.4
			c1.3,0.7,3,0.4,4.6,0.6c0,4.3,0,4.3,4.6,7c-1.7,5.9-1.7,5.9,4.6,9.3c-0.3,0.9-0.4,1.9-0.9,2.8c-1.1,2.2-1.2,4.7,0.9,5.8
			c1.3,0.7,3.8,0.3,5.3-0.5c10.5-5.9,18-14.5,22.1-25.9c1.6-4.5,2.7-9.4,2.8-14.1C232.2,407.6,231.3,400.4,230.9,393.2z M213,377.5
			c-1.1,2.3-2.1,4.7-3.2,7c-0.5-0.1-1.1-0.1-1.6-0.2c-0.3-1.7-1.4-3.7-0.8-4.9c0.7-1.4,2.9-2.1,4.5-3.1
			C212.3,376.7,212.6,377.1,213,377.5z M209.5,316c0.2,0,0.4,0,0.5,0c0,1.3,0,2.6,0,3.8c-0.2,0-0.4,0-0.5,0
			C209.5,318.5,209.5,317.2,209.5,316z M205.8,314.2c0.4,2.6,0.7,4.9,1,7.3c-0.4,0.1-0.7,0.2-1.1,0.2c-0.6-2-1.1-3.9-1.7-5.9
			c-3.1,1.8,1.2,6.3-2.9,7.9C199.1,317.3,200.4,314.4,205.8,314.2z M195.6,307.9c-2.4,0.2-4.2,0.9-5.4,0.3c-3.7-2-6.6-0.6-9.6,1.3
			c-0.4,0.2-0.8,0.4-1.5,0.8C182.7,303.9,190.7,302.3,195.6,307.9z M187.9,310.9c4.3-0.1,9,4.1,8,8.6c-0.1,5.8-2.4,7.9-8.3,7.7
			c-4.5-0.2-8.7-4.3-8.6-8.6C179.1,314.5,183.4,310.9,187.9,310.9z M177.6,328.4c3.8,1.2,7.3,3.2,10.9,3.2c3.5,0,7-1.9,11-3.2
			c-0.6,4.1-2.7,4.7-5.9,6.1c-5.1,2.2-9.8,1.1-14-1.5C178,332.1,176.2,330.8,177.6,328.4z M173.4,324.4c-0.3-2.3-0.6-4.6-0.9-6.9
			C175.4,319.3,175.7,321.6,173.4,324.4z M167.3,319c0.6,0,1.2-0.1,1.9-0.1c0.6,2.3,1.1,4.5,1.7,6.8c-0.2,0.2-0.4,0.5-0.7,0.7
			c-1.1-0.6-2.9-1-3.1-1.8C166.8,322.8,167.2,320.8,167.3,319z M162.7,367c-1,1.8-2,3.3-2.7,4.9c-1.3,3.4-3,4.3-6.3,3.3
			c-1.9-0.6-3.8-1.1-6.3-1.8C151.8,368.1,157.4,368.1,162.7,367z M141.1,378.6c0.9,6.9-0.1,8.1-6.6,7.9
			C136.8,383.8,138.8,381.4,141.1,378.6z M129.6,395.2c0.7,2.6,1.7,4.9,1.8,7.3c0.1,2.3-0.3,5-1.3,7c-1.4,2.8-3.7,5.1-5.8,7.9
			C124.8,409.6,125.7,402,129.6,395.2z M125.2,430.8c3.2,2.1,6.9,3.6,9.4,6.2c1.8,1.8,2,5.1,3.2,8.3
			C128.4,442.5,124.2,437.4,125.2,430.8z M162.9,392.8c-1,0.7-2.1,1.4-3.1,2.1c-0.2-0.1-0.4-0.2-0.6-0.3c0.4-1.1,0.7-2.4,1.4-3.3
			c0.2-0.3,1.6,0.2,2.4,0.4C162.9,392,162.9,392.4,162.9,392.8z M165.7,386.3c-4.3,0-7.9,0-12.2,0c-0.8-1-2.4-3.3-5.4,0.1
			c1.3,1.2,2.3,2.9,3.7,3.3c2.8,0.8,3.3,2.4,3.1,4.7c-1.9,1.1-3.7,2.2-5.5,3.3c-1.1,3-2.2,5.9-3.2,8.9c-1.2,3.7-0.4,5.3,3.1,7
			c3.5,1.7,8.6,7,9.5,10c-0.5,0.3-1,0.8-1.5,0.8c-3.3,0.5-5,2.5-6.2,5.5c-0.6,1.4-2.1,3-3.5,3.4c-3.9,1.1-5.3,2.4-6,7.7
			c-1-5.9-4.9-9.1-9.9-11.7c-2.5-1.2-3.8-6.6-2.2-10.2c1.8-4,4.2-7.7,6.3-11.6c5.5,4.3,5.5,4.3,8,2c-1.8-2.3-3.5-4.7-5.5-6.9
			c-4.5-4.9-3.3-9.9,3.1-11.8c4-1.2,5.6-3.5,5.4-7.9c-0.1-3.4,1.5-5.1,4.3-3.5c6,3.6,9.5,0.3,13.1-3.7c0.6-0.6,1.3-1.1,2.7-1.4
			C166.4,378.6,166,382.7,165.7,386.3z M154.6,401c-0.3,2.8-0.7,5.6-1.1,9.6c-1.5-1.5-3.1-2.5-3-3.1c0.5-2.4,1.5-4.7,2.4-7
			C153.4,400.6,154,400.8,154.6,401z M195.6,355c-3.4,0.2-3.8,2-3.8,4.8c-0.1,10-0.5,20-0.8,29.5c-3.3,1.4-5.8,2.3-8.1,3.5
			c-0.5,0.3-0.6,1.5-1.1,2.8c2.8-0.4,5-0.7,7.2-1c1.8,5.4,1.3,7.2-2.7,10.3c-5.5-2.2-7.5-6.8-6.3-12.4c1.5-7,2.5-14,3.4-21.1
			c0.2-1.3-1.1-2.8-1.8-4.6c-3.9,3.1-2.8,6.8-3.4,10c-1.1,5.7-2.1,11.5-3.3,17.2c-0.3,1.3-1.5,2.4-2.9,4.3c-0.8-2-1.2-3.1-1.4-3.6
			c1.7-2,3-3.7,4.3-5.3c-1.4-0.9-2.7-1.8-4.6-3c0.1,0.3-0.1,0-0.1-0.4c-0.4-8.3-0.8-16.5-1.2-24.8c-0.1-2.1,0.2-4.5-2.6-4.7
			c-2.8-0.1-2.3,2.4-2.5,4.2c0,0.2-0.2,0.5-0.5,1.2c-3.5,0.9-7.2,1.9-11,2.8c-1.8-9.2,6.1-28.5,13-32.2c3.2,3.6-1.1,9.1,3.7,13.4
			c1.1-5.4,2-10,3-14.6c0.4-0.2,0.8-0.4,1.2-0.5c2.2,4.2,4.5,7.6,9.5,8.7c4.4,0.9,9.2,2.9,13.4-1.1c3.3-3.2,6.1-4.8,9.1-8.2
			c0.1,1.6,0.1,3.7,0.3,5.8c0.3,2.7-0.3,5.3,2.6,7.7c2,1.7,2.2,5.8,2.6,8.9c0.8,5.7,1.1,11.6,1.6,17.3c0.1,0.9,0,1.8,0,2.6
			c-1.8,0-3.2,0-4.9,0c0-4.4,0.1-8.7,0-13.1c0-1.1-0.3-2.5-1-3.3c-0.4-0.5-2.3-0.4-2.7,0.1c-0.7,0.9-1.2,2.3-1.1,3.4
			c0.3,9.7,0.7,19.5,1.1,29.2c-3.3,0-5.8,0-8.7,0C196.6,377.4,197.1,366.3,195.6,355z M194.9,393.9c2.7,0.2,4.8,0.3,6.9,0.5
			c0.3,0,0.6,0.5,0.9,0.8c-0.3,2.4-1.3,4-4,3.9C195.5,398.9,195.5,396.5,194.9,393.9z M202.6,436.5c0.8-2.7-0.1-4.7-2.7-6.5
			c-2.1-1.4-3.4-3.8-5.8-6.4c1.6-3.2,3.7-7,5.5-11c1.1-2.4,1.7-4.9,2.5-7.4c0.3-0.9,0.5-2.1,1.1-2.7c2.9-2.3,3.6-5.5,3.7-8.9
			c0.1-2.1,0.8-3.3,3-3.7c2.8-0.4,4.6-2.4,5.2-5c1-4.4,1.7-8.9,2.6-14.1c2.4,3.1,4.6,6,6.7,8.9c-8.4,7.8-10.8,14-4.8,22.6
			c-1.9,2.7-3.8,5.5-5.7,8.2c-2,2.9-1.3,5.5,0.6,8.1c3.7,5.2,3.4,7-1.6,10.7c-4,3-5.9,7.1-6.3,12c0,0.6-0.2,1.1-0.3,1.9
			C203.1,442,201.5,440.1,202.6,436.5z M226.2,422.3c-2,9-6.2,17.5-14.7,22.8c-1.6,1-3,2.5-4.4,3.8c-0.3-0.3-0.6-0.6-0.9-0.8
			c3.5-2.6,5.3-5.9,6.2-10.1c0.5-2,2.8-3.7,4.6-5.3c4.7-4.1,5.7-9.1,2.8-14.7c-2.8-5.5-2.7-6,1.9-9.7c4.2-3.3,4.6-5.8,1.5-10.3
			c-1.9-2.7-2.5-5.3-0.6-8.1c0.7-1,1.9-1.6,3.7-3.1c0.3,5,0.9,8.9,0.8,12.8C227.1,407.1,227.8,414.9,226.2,422.3z"/>
		<path d="M149.2,397.7C149.2,397.7,149.3,397.7,149.2,397.7C149.3,397.6,149.3,397.6,149.2,397.7L149.2,397.7z"/>
	</g>
</g>
</svg>
