<?xml version="1.0" encoding="utf-8"?>
<!-- Generator: Adobe Illustrator 21.0.2, SVG Export Plug-In . SVG Version: 6.00 Build 0)  -->
<svg version="1.1" id="Layer_1" xmlns="http://www.w3.org/2000/svg" xmlns:xlink="http://www.w3.org/1999/xlink" x="0px" y="0px"
	 viewBox="0 0 87 43" style="enable-background:new 0 0 87 43;" xml:space="preserve">
<g>
	<path d="M5.3,32.3c-1.3,0-2-0.6-2.2-1.6c-0.2-0.8,0.2-1.4,1.2-1.9C5,28.4,5.7,28,6.4,27.6c1-0.5,2-1.2,3-1.6
		c1.3-0.5,2.8,0.7,2.7,2.1c0,0.5-0.3,0.8-0.7,1c-1,0.5-2,1-3,1.5c-0.5,0.3-0.9,0.7-1.4,1C6.4,31.8,5.7,32.1,5.3,32.3z"/>
	<path d="M2.9,22.5c0.7-0.2,1.4-0.4,2.1-0.6c0.6-0.2,1.2-0.4,1.8-0.6c1.1-0.5,1.9,0.1,2.6,0.8c0.7,0.7,0.5,1.7-0.4,2
		c-1.9,0.7-3.6,1.6-5.7,1.7c-1.1,0.1-2.6-1-2.7-2.1c-0.1-0.7,0.3-1,0.8-1.2c0.5-0.2,1-0.2,1.5-0.3C2.9,22.3,2.9,22.4,2.9,22.5z"/>
	<path d="M11.3,19.9c-0.1,0.9-0.7,1.3-1.5,0.9c-0.5-0.2-1-0.6-1.4-1c-0.8-0.8-1.7-1.4-3-1.5c-0.6-0.1-1.3-0.6-1.8-1.1
		c-0.5-0.4-0.5-1.5-0.2-1.9c0.2-0.3,1.4-0.7,1.9-0.5c1.8,0.8,3.6,1.3,5,2.8C10.8,18.2,11.3,19.2,11.3,19.9z"/>
	<path d="M31.6,41c-0.7,0.7-2.2,0.2-3-1c-0.4-0.7-1-1.3-1.5-1.9c-0.6-0.9-0.8-1.9-0.2-2.9c0.1-0.1,0.1-0.3,0.1-0.4
		c0.1-2.3,0.2-4.7,0.2-7c0-0.9-1.2-1.5-2.4-1.4c-0.2,0-0.4,0.1-0.6,0.2c-1.2,0.7-2.5,1-3.9,1.1c-0.5,0-0.7,0.4-0.7,0.8
		c0,0.9,0,1.8,0,2.8c0,0.5,0.1,1,0.1,1.4c0,2.2-0.1,4.4-0.2,6.7c0,0.2,0,0.5,0,0.7c-0.1,0.8-0.7,1.3-1.4,1.6
		c-0.3,0.1-0.9-0.2-1.3-0.4c-1.9-1.2-2.2-1.9-1.8-4.1c0.1-0.4,0.1-0.8,0.1-1.2c0-2.1,0-4.3,0-6.4c0-0.7,0.1-1.4-0.5-2
		c-0.4-0.4-0.4-1,0.1-1.4c0.5-0.5,0.6-1.1,0.6-1.7c0.1-4.6,0.3-9.2,0.5-13.8c0.1-2.3,0.3-4.6,0.5-7c0.1-0.8,0.3-1,1.1-0.9
		C18.3,2.8,19,3,19.6,3.2c0.9,1,1.2,2.2,1.1,3.5c-0.1,0.8,0,1.7-0.1,2.5c-0.2,2.4-0.3,4.7-0.5,7.1c-0.1,2.2-0.3,4.5,0.2,6.8
		c1.3-0.2,2.4-0.9,3-1.9c0.9-1.7,1.8-3.5,2.2-5.4c0.6-2.3,0.8-4.7,0.9-7c0.1-1.6,0-3.2,0-4.8c0-0.6,0.1-1.2,0.7-1.5
		c0.6-0.3,1.9-0.1,2.4,0.5c0.8,1,1.3,2,1,3.5c-0.3,1.1-0.1,2.4-0.2,3.6c0,0.8,0,1.5,0,2.3c-0.1,1.1-0.2,2.1-0.3,3.2
		c-0.2,2.2-0.5,4.3-1.7,6.3c-0.2,0.3-0.3,0.7-0.4,1.1c-0.2,0.5,0,0.9,0.4,1.2c1.5,1,2.1,2.6,2.4,4.3c0.5,2.6,0.5,5.3,0.3,8
		c0,0.4,0.1,0.9,0.3,1.2C32,38.8,32.1,39.5,31.6,41z"/>
	<path d="M41.8,29.3c0-0.1-0.1-0.3-0.2-0.3c-0.1,0-0.3-0.1-0.4-0.1c-1.1,0.2-2-0.1-3-0.6c-2.3-1.1-3.7-2.8-4.3-5.1
		c-0.1-0.3-0.1-0.6-0.1-0.9c0.2-2.7-0.4-5.3-0.5-7.9c0-0.3-0.2-0.7,0-1c0.6-1.1,0.3-2.2,0.4-3.3c0.1-1.3,0.3-2.5,0.4-3.8
		c0.1-0.9,0.2-1.8,0.3-2.7c0.1-0.9,0.3-1,1.2-1.1c2.1-0.2,3.1,2,2.8,3.5c-0.5,2.4-0.7,4.9-0.7,7.4c0,0,0,0.1,0,0.1
		c0.3,3.1,0.5,6.3,0.8,9.4c0,0.3,0.2,0.6,0.3,0.9c0.1,0.1,0.2,0.2,0.3,0.2c1.7-0.1,2.1-0.6,2.3-2.2c0.2-1.7,0.3-3.5,0.5-5.2
		c0-0.4,0.1-0.9,0.2-1.3c0.6-1.7,0.5-3.4,0.3-5.2c-0.1-1.3-0.1-2.6-0.4-3.9c-0.2-0.8-0.1-1.7,0-2.6c0.1-1.1,1.2-1.8,2.3-1.5
		c1.5,0.5,2.6,2,2.2,3.6c-0.3,1.6-0.2,3.2,0,4.8c0,0.3,0,0.7,0,1c-0.1,1,0,2.1-0.2,3.1c-0.2,1.7,0.1,3.4-0.1,5
		c-0.2,1.7-0.5,3.3-0.2,5c0,0.2,0.1,0.5,0,0.7c-0.2,2.2-0.4,4.3-0.6,6.5c-0.1,1.2-0.3,2.4,0.1,3.6c0.2,0.6,0.1,0.8,0.2,1.5
		c0,0.1-0.1,0.6-0.2,0.7c-0.2,0.3-0.5,0.5-0.6,1c-0.1,0.7-0.5,1.3-0.9,2c-0.1,0.2-0.3,0.4-0.5,0.6c-1.1,0.9-4.4,1.1-5.4,0.1
		c-1-1-2-2.1-2.3-3.6c-0.2-0.8-0.5-1.7-0.8-2.5c-0.2-0.7-0.5-1.3,0-1.9c0.3-0.3,0.8-0.6,1.2-0.6c0.6,0,1.1,0.5,1.4,1.1
		c0.4,1,0.8,2.1,1.2,3.1c0.1,0.2,0.2,0.4,0.3,0.7c0.1,0.1,0.2,0.2,0.4,0.2c1.3-0.2,1.5-0.5,1.5-1.8c0-1.1,0.1-2.2,0.1-3.3
		C41.7,31.6,41.7,30.5,41.8,29.3z"/>
	<path d="M74,32.9c0.8,0.4,1,0.8,0.9,1.4c-0.1,0.7,0,1.5-0.4,1.9c-1,1.2-2.1,2.2-3.2,3.3c-0.3,0.3-0.7,0.4-1,0.5
		c-1,0.3-1.9,0.6-2.9,0.9c-1,0.3-1.9,0.1-2.5-0.7c-1-1.1-2-2.2-2.4-3.7c-0.4-1.4-0.9-2.7-1.3-4.2c-0.2-0.7-0.1-1.5-0.1-2.3
		c0-1.2-0.1-2.3-0.2-3.5c0-0.7,0.1-1.5,0-2.2c0-2.8,0-5.5-0.1-8.3c0-0.5-0.2-1.1-0.3-1.6c-0.1-0.4-0.2-0.8-0.2-1.1
		c0-2.3,0-4.6-0.1-6.8c0-1.3,0.5-2.4,0.9-3.5c0.4-0.9,1.3-1.4,2.2-1.5c2.6-0.4,5.3-0.6,7.9-1C72.5,0.6,73.3,1.3,74,2
		c0.7,0.7,0,2.2-1.2,2.5c-0.6,0.2-1.3,0.4-2,0.5c-1.6,0.3-3.2,0.5-4.8,0.8c-1.2,0.2-1.9,1.2-1.8,2.4c0.1,1.8,0.2,3.6,0.3,5.4
		c0.1,1,0.2,2,0.3,3.1c0.7,0.2,1.2,0.1,1.8-0.1c1.7-0.6,3.5,0,4.4,1.6c0.9,1.5,0,3.1-1.8,3.2c-1.1,0.1-2.2,0.1-3.3,0.2
		c-1,0.1-1.1,0.4-1,1.4c0.1,2.1,0.1,4.3,0.3,6.4c0.1,1.7,0.3,3.5,0.5,5.2c0.2,1.3,0.4,1.3,1.8,1.3c1.4-0.1,2.5-0.5,3.6-1.3
		C72,33.9,73,33.5,74,32.9z"/>
	<path d="M55.2,8.8c0.1,2.5,0.3,5,0.4,7.5c0,1.5-0.1,3.1-0.2,4.6c-0.1,2.6-0.2,5.1-0.2,7.7c0,1.3,0.2,2.6,0.3,3.9
		c0,0.6-0.1,3.2,0.6,3.5c1.2,0.5,2-1,2,0c0,2-1.2,3.3-2.3,4.4c-0.8,0.8-1.4,0.9-2.3,0.2c-1.3-1.1-2.4-2.2-2.3-4.3
		c0.2-2.6,0-5.3-0.1-7.9c0-1.7-0.1-3.4-0.1-5.1c0-0.7,0-1.5,0.1-2.2c0.5-2.6,0.1-5.3,0.2-7.9c0-2.1,0.2-4.1,0.3-6.2
		c0-1.3,0-2.5-0.2-3.8C51.1,2.5,51,2,51.5,1.5c0.5-0.4,1.7-0.4,2.3,0.1c1.1,0.9,1.6,2,1.6,3.4c0,1.3-0.1,2.5-0.1,3.8
		C55.3,8.8,55.2,8.8,55.2,8.8z"/>
	<path d="M83.4,11.8c-0.2,0.3-0.4,0.8-0.8,1.2c-1.9,1.7-3.8,2.3-5.7,4c-0.7,0.6-1.5,1.6-2.2,1c-1-0.8-1.2-2.5-0.2-3.3
		c2.1-1.8,4.1-3.7,6.7-4.7C82.5,9.5,83.4,10.2,83.4,11.8z"/>
	<path d="M83,27.7c-0.4-0.2-1.2-0.6-1.8-1c-1.3-0.8-2.6-1.5-3.8-2.5c-0.7-0.6-1.5-1.1-1.7-2.2c-0.1-0.6-0.2-1.1,0.4-1.4
		c0.6-0.3,1.2-0.5,1.8-0.1c0.1,0.1,0.3,0.2,0.3,0.3c0.6,1.2,1.8,1.7,2.8,2.5c0.4,0.3,1,0.4,1.5,0.6c1.2,0.4,1.9,1.1,2.2,2.3
		C84.6,27.1,84.1,27.7,83,27.7z"/>
	<path d="M83.8,17.2c0.3,0,0.7,0,1,0c1.1,0.2,1.6,1.4,1.1,2.4c-0.6,1-1.5,1.4-2.6,1.3c-1-0.1-2.1-0.4-3.1-0.6
		c-0.9-0.2-2-1.2-1.8-1.6c0.2-0.9,1.1-1,1.9-1.1C81.4,17.3,82.6,17.3,83.8,17.2C83.8,17.2,83.8,17.2,83.8,17.2z"/>
</g>
</svg>
